<svg viewBox="0 0 371 496" fill="#0F2A3D" xmlns="http://www.w3.org/2000/svg">
<path d="M364.929 391.589C364.356 381.254 360.712 371.324 354.462 363.073C348.213 354.821 339.642 348.622 329.849 345.269C325.787 343.874 321.569 342.987 317.289 342.629C314.769 342.629 312.409 342.229 310.209 341.829L235.089 326.949V308.949C256.97 296.351 273.178 275.832 280.369 251.629H285.809C293.85 251.629 301.562 248.435 307.248 242.749C312.934 237.063 316.129 229.351 316.129 221.309C316.129 213.268 312.934 205.556 307.248 199.87C301.562 194.184 293.85 190.989 285.809 190.989H284.369V154.989C284.333 153.951 284.015 152.941 283.449 152.069L313.289 81.1493C313.812 79.8784 313.87 78.4636 313.453 77.1539C313.036 75.8443 312.171 74.7237 311.009 73.9893L196.529 3.26934C193.088 1.13241 189.119 0 185.069 0C181.019 0 177.049 1.13241 173.609 3.26934L59.0889 73.9893C57.9139 74.712 57.035 75.8297 56.6098 77.1419C56.1846 78.4542 56.241 79.875 56.7689 81.1493L88.4089 155.989V190.949H87.0089C78.9675 190.949 71.2555 194.144 65.5694 199.83C59.8833 205.516 56.6889 213.228 56.6889 221.269C56.6889 229.311 59.8833 237.023 65.5694 242.709C71.2555 248.395 78.9675 251.589 87.0089 251.589H92.4489C99.5996 275.779 115.785 296.29 137.649 308.869V326.469L60.3689 341.829C58.1289 342.229 55.7689 342.429 53.2489 342.629C48.9828 342.991 44.7776 343.877 40.7289 345.269C30.9489 348.626 22.3915 354.821 16.1501 363.065C9.90858 371.308 6.26642 381.226 5.6889 391.549L0.00890078 489.909C-0.0344857 490.689 0.081062 491.469 0.348523 492.203C0.615985 492.936 1.02977 493.608 1.56476 494.176C2.09974 494.745 2.74474 495.199 3.46058 495.511C4.17643 495.822 4.94816 495.985 5.7289 495.989H364.849C365.633 495.991 366.409 495.832 367.13 495.522C367.85 495.213 368.5 494.76 369.039 494.191C369.579 493.622 369.996 492.948 370.266 492.212C370.536 491.476 370.652 490.692 370.609 489.909L364.929 391.589ZM316.329 354.149C317.984 354.272 319.628 354.512 321.249 354.869C321.249 355.349 321.249 355.869 320.929 356.349C320.609 357.469 320.249 358.589 319.889 359.709C319.529 360.829 318.969 362.309 318.409 363.709C317.849 365.109 317.369 365.909 316.809 367.029C316.249 368.149 315.489 369.509 314.729 370.749C313.969 371.989 313.369 372.869 312.649 373.909C311.929 374.949 310.929 376.269 310.009 377.429C309.089 378.589 308.329 379.509 307.409 380.509C306.489 381.509 305.369 382.749 304.249 383.829C303.129 384.909 302.249 385.789 301.209 386.749C300.169 387.709 298.809 388.829 297.569 389.869L294.089 392.629L290.089 395.509L286.089 398.069C284.609 398.989 283.089 399.869 281.529 400.749C279.969 401.629 278.769 402.349 277.289 403.109C275.809 403.869 274.009 404.749 272.329 405.509C270.649 406.269 269.329 406.949 267.769 407.629C266.209 408.309 264.209 409.109 262.369 409.829C260.529 410.549 259.209 411.109 257.569 411.669C255.929 412.229 253.569 412.989 251.769 413.589C249.969 414.189 248.449 414.709 246.729 415.189C245.009 415.669 242.729 416.309 240.489 416.829C238.249 417.349 237.089 417.749 235.329 418.149L228.609 419.509L223.409 420.509C221.009 420.909 218.529 421.189 216.089 421.549L211.049 422.229C208.289 422.509 205.449 422.709 202.609 422.949L198.329 423.269H192.169V379.269C202.678 377.992 212.484 373.328 220.106 365.981C227.727 358.634 232.748 349.004 234.409 338.549L307.969 353.149C310.849 353.669 313.609 353.909 316.329 354.149ZM285.809 202.549C290.784 202.549 295.556 204.526 299.074 208.044C302.592 211.562 304.569 216.334 304.569 221.309C304.569 226.285 302.592 231.056 299.074 234.575C295.556 238.093 290.784 240.069 285.809 240.069H282.929C283.855 234.786 284.337 229.434 284.369 224.069V202.549H285.809ZM179.689 13.0693C181.306 12.0709 183.169 11.5422 185.069 11.5422C186.969 11.5422 188.832 12.0709 190.449 13.0693L300.809 81.0693L272.649 147.989C215.442 131.39 154.696 131.39 97.4889 147.989L69.2889 81.2293L179.689 13.0693ZM87.0089 239.989C82.0334 239.989 77.2618 238.013 73.7436 234.495C70.2254 230.976 68.2489 226.205 68.2489 221.229C68.2489 216.254 70.2254 211.482 73.7436 207.964C77.2618 204.446 82.0334 202.469 87.0089 202.469H88.4089V223.989C88.441 229.354 88.9227 234.706 89.8489 239.989H87.0089ZM99.9689 223.989V159.229C156.445 142.677 216.521 142.941 272.849 159.989V223.989C272.849 246.915 263.742 268.901 247.531 285.112C231.321 301.322 209.334 310.429 186.409 310.429C163.484 310.429 141.497 301.322 125.287 285.112C109.076 268.901 99.9689 246.915 99.9689 223.989ZM186.409 321.989C199.145 321.992 211.757 319.491 223.529 314.629V330.869C223.529 340.725 219.614 350.177 212.645 357.145C205.676 364.114 196.224 368.029 186.369 368.029C176.513 368.029 167.062 364.114 160.093 357.145C153.124 350.177 149.209 340.725 149.209 330.869V314.629C161.006 319.504 173.644 322.018 186.409 322.029V321.989ZM54.4089 353.989C57.0889 353.749 59.8889 353.509 62.7689 352.989L138.449 337.989C140.044 348.538 145.056 358.272 152.714 365.7C160.373 373.127 170.256 377.838 180.849 379.109V423.109C178.009 423.109 175.169 423.109 172.409 422.869L168.169 422.549C165.329 422.309 162.449 422.149 159.649 421.829L154.729 421.149C152.249 420.829 149.729 420.509 147.289 420.109C145.569 419.829 143.929 419.429 142.249 419.109C140.569 418.789 137.609 418.269 135.369 417.749L130.409 416.509C128.249 415.949 126.049 415.389 123.969 414.789L119.169 413.269C117.129 412.629 115.169 411.989 113.089 411.269C111.009 410.549 110.049 410.109 108.529 409.509C107.009 408.909 104.729 407.989 102.889 407.189L98.5689 405.229C95.4248 403.756 92.3423 402.154 89.3289 400.429C88.0089 399.669 86.0889 398.589 84.5289 397.629L80.8889 395.229C79.4089 394.189 77.9289 393.189 76.5689 392.149C75.2089 391.109 74.3289 390.429 73.2489 389.549C72.1689 388.669 70.6489 387.389 69.4489 386.269C68.2489 385.149 67.4889 384.429 66.5289 383.509C65.5689 382.589 64.2889 381.229 63.2489 380.029C62.2089 378.829 61.5689 378.109 60.7689 377.109C59.9689 376.109 58.8889 374.669 58.0489 373.469C57.2089 372.269 56.6489 371.429 56.0089 370.389C55.3689 369.349 54.5289 367.829 53.8889 366.389C53.2489 364.949 52.8089 364.269 52.3289 363.189C51.8489 362.109 51.2889 360.549 50.8489 359.189C50.4423 358.102 50.0951 356.994 49.8089 355.869C49.8089 355.389 49.8089 354.869 49.4889 354.389C51.055 354.202 52.6319 354.122 54.2089 354.149L54.4089 353.989ZM17.2889 392.229C17.6598 385.336 19.7926 378.654 23.4832 372.82C27.1738 366.986 32.299 362.197 38.3689 358.909V359.269C39.0166 361.713 39.8046 364.117 40.7289 366.469C40.8792 366.782 41.0127 367.102 41.1289 367.429C42.1028 369.791 43.2251 372.089 44.4889 374.309L45.0089 375.269C46.3422 377.509 47.7822 379.709 49.3289 381.869L49.9689 382.709C51.5689 384.869 53.3289 386.989 55.2089 389.069L55.8489 389.749C57.8089 391.829 59.8489 393.749 62.1289 395.869L62.6089 396.309C64.9289 398.349 67.3689 400.309 69.9689 402.269C72.6089 404.229 75.4089 406.269 78.3689 407.949C81.2089 409.709 84.2089 411.389 87.2889 412.989L87.9289 413.349C90.8889 414.909 94.0089 416.349 97.1689 417.749L98.2489 418.229C101.369 419.589 104.569 420.829 107.889 422.229L109.249 422.749C112.529 423.909 115.889 424.989 119.289 425.989L120.849 426.429C124.289 427.429 127.809 428.309 131.369 429.149L133.009 429.509C136.636 430.309 140.316 431.029 144.049 431.669L145.649 431.909C149.649 432.549 153.329 433.069 157.249 433.509H158.609C162.609 433.949 166.609 434.269 170.929 434.509H171.809C174.649 434.509 177.489 434.749 180.409 434.789V484.269H11.8089L17.2889 392.229ZM192.289 484.469V434.949C194.409 434.949 196.289 434.949 198.609 434.709H199.489C203.489 434.469 207.729 434.149 211.769 433.709H213.169C217.169 433.269 220.929 432.749 224.729 432.149L226.369 431.869C230.089 431.229 233.769 430.509 237.329 429.709L239.049 429.349C242.609 428.509 246.089 427.629 249.489 426.669L251.169 426.149C254.569 425.149 257.889 424.109 261.089 422.949L262.609 422.389C265.849 421.229 269.049 419.989 272.089 418.669L273.369 418.109C276.449 416.709 279.489 415.309 282.409 413.789L283.289 413.309C286.289 411.749 289.209 410.069 292.009 408.349L292.329 408.149C295.129 406.389 297.809 404.549 300.329 402.669L300.689 402.429C303.209 400.549 305.569 398.429 307.849 396.589L308.489 396.029C310.689 394.069 312.729 392.029 314.649 389.989L315.369 389.229C317.249 387.189 318.969 385.229 320.609 382.949L321.249 382.029C322.809 379.869 324.249 377.669 325.569 375.469L326.089 374.509C327.353 372.275 328.475 369.964 329.449 367.589L329.809 366.669C330.77 364.299 331.572 361.867 332.209 359.389V359.109C338.291 362.386 343.429 367.172 347.127 373.007C350.826 378.842 352.962 385.53 353.329 392.429L358.689 484.669L192.289 484.469Z"/>
<path d="M155.489 76.7893H169.289V123.989C169.284 124.749 169.429 125.502 169.716 126.206C170.003 126.909 170.426 127.549 170.962 128.088C171.497 128.627 172.134 129.055 172.835 129.347C173.537 129.639 174.289 129.789 175.049 129.789H194.769C195.542 129.811 196.312 129.676 197.032 129.394C197.752 129.112 198.408 128.687 198.96 128.146C199.513 127.605 199.95 126.958 200.247 126.244C200.544 125.529 200.695 124.763 200.689 123.989V76.7893H214.649C215.409 76.7894 216.161 76.639 216.862 76.3471C217.564 76.0551 218.201 75.6273 218.736 75.0882C219.271 74.549 219.695 73.9093 219.982 73.2059C220.269 72.5024 220.414 71.7491 220.409 70.9893V54.6693C220.409 53.1417 219.802 51.6766 218.722 50.5964C217.642 49.5162 216.177 48.9093 214.649 48.9093H200.689V36.7093C200.694 35.9514 200.549 35.2 200.261 34.4988C199.974 33.7976 199.55 33.1605 199.014 32.6245C198.478 32.0886 197.841 31.6645 197.139 31.377C196.438 31.0894 195.687 30.944 194.929 30.9493H175.209C174.438 30.9223 173.669 31.0517 172.949 31.3295C172.229 31.6074 171.573 32.028 171.02 32.5662C170.467 33.1043 170.028 33.7488 169.731 34.4608C169.433 35.1728 169.283 35.9377 169.289 36.7093V48.9093H155.489C153.961 48.9093 152.496 49.5162 151.416 50.5964C150.336 51.6766 149.729 53.1417 149.729 54.6693V70.9893C149.724 71.7491 149.869 72.5024 150.156 73.2059C150.443 73.9093 150.866 74.549 151.402 75.0882C151.937 75.6273 152.574 76.0551 153.275 76.3471C153.977 76.639 154.729 76.7894 155.489 76.7893ZM161.289 60.4693H175.249C176.009 60.4694 176.761 60.3191 177.462 60.0271C178.164 59.7351 178.801 59.3073 179.336 58.7682C179.871 58.229 180.295 57.5893 180.582 56.8859C180.869 56.1824 181.014 55.4291 181.009 54.6693V42.4693H189.009V54.6693C189.004 55.4291 189.149 56.1824 189.436 56.8859C189.723 57.5893 190.146 58.229 190.682 58.7682C191.217 59.3073 191.854 59.7351 192.555 60.0271C193.257 60.3191 194.009 60.4694 194.769 60.4693H208.889V65.2293H194.929C193.422 65.2607 191.988 65.8814 190.933 66.9582C189.879 68.0351 189.289 69.4823 189.289 70.9893V118.189H181.289V70.9893C181.289 69.4617 180.682 67.9966 179.602 66.9164C178.522 65.8362 177.057 65.2293 175.529 65.2293H161.289V60.4693ZM257.289 135.669C258.701 136.256 260.287 136.261 261.702 135.685C263.118 135.108 264.249 133.995 264.849 132.589L274.849 108.949C275.305 107.567 275.225 106.065 274.625 104.739C274.025 103.413 272.949 102.361 271.609 101.792C270.27 101.223 268.765 101.179 267.395 101.667C266.024 102.156 264.887 103.142 264.209 104.429L254.289 127.989C253.972 128.689 253.798 129.445 253.778 130.213C253.758 130.981 253.891 131.746 254.171 132.461C254.45 133.177 254.87 133.83 255.406 134.38C255.941 134.931 256.581 135.37 257.289 135.669ZM277.289 94.7493C278.817 94.7493 280.282 94.1425 281.362 93.0623C282.442 91.9821 283.049 90.517 283.049 88.9893C283.049 87.4617 282.442 85.9966 281.362 84.9164C280.282 83.8362 278.817 83.2293 277.289 83.2293C275.761 83.2293 274.296 83.8362 273.216 84.9164C272.136 85.9966 271.529 87.4617 271.529 88.9893C271.529 90.517 272.136 91.9821 273.216 93.0623C274.296 94.1425 275.761 94.7493 277.289 94.7493Z" />
</svg>
