<svg viewBox="0 0 486 503" fill="#0F2A3D" xmlns="http://www.w3.org/2000/svg">
<path d="M187.28 251.4C185.954 251.4 184.682 250.873 183.744 249.936C182.807 248.998 182.28 247.726 182.28 246.4V177.5C182.28 176.163 182.811 174.881 183.756 173.936C184.701 172.991 185.983 172.46 187.32 172.46C188.657 172.46 189.939 172.991 190.884 173.936C191.829 174.881 192.36 176.163 192.36 177.5V246.36C192.365 247.027 192.237 247.688 191.984 248.304C191.73 248.921 191.355 249.481 190.882 249.95C190.408 250.42 189.846 250.79 189.227 251.039C188.609 251.288 187.947 251.411 187.28 251.4ZM298.66 251.4C297.334 251.4 296.062 250.873 295.125 249.936C294.187 248.998 293.66 247.726 293.66 246.4V177.43C293.66 176.092 294.192 174.809 295.138 173.863C296.084 172.917 297.367 172.385 298.705 172.385C300.043 172.385 301.326 172.917 302.272 173.863C303.219 174.809 303.75 176.092 303.75 177.43V246.36C303.755 247.028 303.627 247.69 303.373 248.307C303.118 248.924 302.743 249.484 302.268 249.954C301.794 250.424 301.23 250.793 300.61 251.042C299.991 251.29 299.328 251.412 298.66 251.4Z" />
<path d="M321.06 196.71C320.063 196.712 319.088 196.416 318.26 195.86L242.97 145.67L167.68 195.86C167.115 196.243 166.478 196.507 165.808 196.634C165.137 196.762 164.447 196.751 163.781 196.602C163.115 196.453 162.487 196.169 161.934 195.768C161.382 195.367 160.918 194.857 160.57 194.27L150.57 177.71C149.889 176.602 149.667 175.271 149.951 174.002C150.234 172.732 151.002 171.623 152.09 170.91L240.09 112.21C240.917 111.651 241.892 111.352 242.89 111.352C243.888 111.352 244.863 111.651 245.69 112.21L332.58 170.14C333.615 170.818 334.362 171.856 334.676 173.053C334.99 174.25 334.849 175.521 334.28 176.62L325.55 194C325.133 194.833 324.492 195.532 323.698 196.02C322.905 196.507 321.991 196.764 321.06 196.76V196.71ZM161.72 176.63L166.48 184.55L240.17 135.42C240.997 134.861 241.972 134.562 242.97 134.562C243.968 134.562 244.943 134.861 245.77 135.42L319.13 184.33L323.34 176.05L242.97 122.46L161.72 176.63ZM368.07 502C366.744 502 365.472 501.473 364.535 500.536C363.597 499.598 363.07 498.326 363.07 497V295.33L242.97 215.29L122.91 295.29V497C122.91 498.338 122.379 499.621 121.432 500.567C120.486 501.514 119.203 502.045 117.865 502.045C116.527 502.045 115.244 501.514 114.298 500.567C113.352 499.621 112.82 498.338 112.82 497V292.63C112.818 291.8 113.022 290.982 113.415 290.25C113.808 289.519 114.377 288.897 115.07 288.44L240.17 205C240.997 204.441 241.972 204.142 242.97 204.142C243.968 204.142 244.943 204.441 245.77 205L370.87 288.4C371.564 288.857 372.132 289.479 372.525 290.21C372.918 290.942 373.122 291.76 373.12 292.59V497C373.12 497.661 372.989 498.315 372.735 498.925C372.48 499.535 372.108 500.088 371.638 500.553C371.168 501.018 370.611 501.386 369.999 501.634C369.386 501.882 368.731 502.007 368.07 502Z" />
<path d="M31.7999 502C30.4738 502 29.202 501.473 28.2643 500.536C27.3266 499.598 26.7999 498.326 26.7999 497V376.31C26.7956 375.409 27.035 374.523 27.4926 373.747C27.9503 372.971 28.6093 372.333 29.3999 371.9L115.45 324.33C116.029 324.01 116.665 323.808 117.323 323.734C117.98 323.66 118.646 323.716 119.281 323.9C119.917 324.083 120.51 324.39 121.027 324.803C121.544 325.215 121.975 325.726 122.295 326.305C122.615 326.884 122.817 327.521 122.891 328.178C122.965 328.835 122.908 329.501 122.725 330.137C122.542 330.772 122.235 331.365 121.822 331.882C121.409 332.4 120.899 332.83 120.32 333.15L36.8399 379.28V497C36.8399 497.66 36.7092 498.313 36.4555 498.923C36.2017 499.532 35.8298 500.085 35.3613 500.55C34.8927 501.015 34.3368 501.382 33.7256 501.631C33.1143 501.88 32.4598 502.005 31.7999 502ZM454.14 502C452.814 502 451.542 501.473 450.604 500.536C449.667 499.598 449.14 498.326 449.14 497V379.36L365.8 335.66C364.616 335.039 363.726 333.974 363.328 332.698C362.929 331.421 363.054 330.039 363.675 328.855C364.295 327.671 365.361 326.782 366.637 326.383C367.913 325.985 369.296 326.109 370.48 326.73L456.48 371.85C457.297 372.273 457.981 372.913 458.457 373.7C458.934 374.487 459.184 375.39 459.18 376.31V497C459.18 497.66 459.049 498.313 458.795 498.923C458.542 499.532 458.17 500.085 457.701 500.55C457.233 501.015 456.677 501.382 456.066 501.631C455.454 501.88 454.8 502.005 454.14 502ZM280.1 501.5C278.774 501.5 277.502 500.973 276.564 500.036C275.627 499.098 275.1 497.826 275.1 496.5V437C275.1 432.786 274.27 428.613 272.657 424.72C271.044 420.826 268.681 417.289 265.701 414.309C262.721 411.329 259.184 408.965 255.29 407.353C251.397 405.74 247.224 404.91 243.01 404.91C238.796 404.91 234.623 405.74 230.73 407.353C226.836 408.965 223.299 411.329 220.319 414.309C217.339 417.289 214.975 420.826 213.363 424.72C211.75 428.613 210.92 432.786 210.92 437V496.3C210.92 497.637 210.389 498.919 209.444 499.864C208.498 500.809 207.217 501.34 205.88 501.34C204.543 501.34 203.261 500.809 202.316 499.864C201.371 498.919 200.84 497.637 200.84 496.3V437C200.84 425.816 205.283 415.09 213.191 407.181C221.1 399.273 231.826 394.83 243.01 394.83C254.194 394.83 264.92 399.273 272.829 407.181C280.737 415.09 285.18 425.816 285.18 437V496.49C285.181 497.154 285.05 497.812 284.795 498.425C284.539 499.038 284.164 499.594 283.691 500.061C283.218 500.527 282.657 500.895 282.04 501.142C281.424 501.389 280.764 501.511 280.1 501.5ZM196.56 372.07H164.07C162.744 372.07 161.472 371.543 160.534 370.606C159.597 369.668 159.07 368.396 159.07 367.07V307C159.07 305.674 159.597 304.402 160.534 303.464C161.472 302.527 162.744 302 164.07 302H196.56C197.886 302 199.158 302.527 200.095 303.464C201.033 304.402 201.56 305.674 201.56 307V367C201.569 367.662 201.447 368.32 201.2 368.935C200.952 369.55 200.586 370.109 200.12 370.581C199.655 371.053 199.101 371.427 198.49 371.683C197.878 371.938 197.222 372.07 196.56 372.07ZM169.11 362H191.52V312.06H169.11V362ZM321.87 372.07H289.38C288.054 372.07 286.782 371.543 285.844 370.606C284.907 369.668 284.38 368.396 284.38 367.07V307C284.38 305.674 284.907 304.402 285.844 303.464C286.782 302.527 288.054 302 289.38 302H321.87C323.196 302 324.468 302.527 325.405 303.464C326.343 304.402 326.87 305.674 326.87 307V367C326.879 367.662 326.757 368.32 326.51 368.935C326.262 369.55 325.896 370.109 325.43 370.581C324.965 371.053 324.411 371.427 323.8 371.683C323.188 371.938 322.532 372.07 321.87 372.07ZM294.42 362H316.83V312.06H294.42V362Z" />
<path d="M427.35 462.41H394.86C393.534 462.41 392.262 461.883 391.324 460.946C390.387 460.008 389.86 458.736 389.86 457.41V397.41C389.86 396.084 390.387 394.812 391.324 393.874C392.262 392.937 393.534 392.41 394.86 392.41H427.35C428.676 392.41 429.948 392.937 430.886 393.874C431.823 394.812 432.35 396.084 432.35 397.41V457.41C432.35 458.736 431.823 460.008 430.886 460.946C429.948 461.883 428.676 462.41 427.35 462.41ZM399.91 452.33H422.31V402.4H399.91V452.33ZM91.08 462.41H58.59C57.2639 462.41 55.9921 461.883 55.0545 460.946C54.1168 460.008 53.59 458.736 53.59 457.41V397.41C53.59 396.084 54.1168 394.812 55.0545 393.874C55.9921 392.937 57.2639 392.41 58.59 392.41H91.08C92.4061 392.41 93.6779 392.937 94.6155 393.874C95.5532 394.812 96.08 396.084 96.08 397.41V457.41C96.08 458.736 95.5532 460.008 94.6155 460.946C93.6779 461.883 92.4061 462.41 91.08 462.41ZM63.63 452.33H86.03V402.4H63.63V452.33ZM259.21 372.07H226.73C225.404 372.07 224.132 371.543 223.194 370.606C222.257 369.668 221.73 368.396 221.73 367.07V307C221.73 305.674 222.257 304.402 223.194 303.464C224.132 302.527 225.404 302 226.73 302H259.21C259.871 301.993 260.526 302.118 261.139 302.366C261.751 302.614 262.308 302.982 262.778 303.447C263.247 303.912 263.62 304.465 263.875 305.075C264.129 305.685 264.26 306.339 264.26 307V367C264.269 367.667 264.145 368.329 263.895 368.947C263.645 369.565 263.274 370.126 262.803 370.599C262.332 371.071 261.772 371.445 261.155 371.697C260.538 371.95 259.877 372.077 259.21 372.07ZM231.77 362H254.17V312.06H231.77V362ZM254.2 128.92C252.874 128.92 251.602 128.393 250.664 127.456C249.727 126.518 249.2 125.246 249.2 123.92V61.18C249.2 59.8539 249.727 58.5821 250.664 57.6445C251.602 56.7068 252.874 56.18 254.2 56.18H290.33V43.71H254.2C252.874 43.71 251.602 43.1832 250.664 42.2455C249.727 41.3079 249.2 40.0361 249.2 38.71V10.06H236.78V38.67C236.78 39.3266 236.651 39.9768 236.399 40.5834C236.148 41.19 235.78 41.7412 235.316 42.2055C234.851 42.6698 234.3 43.0381 233.693 43.2894C233.087 43.5407 232.437 43.67 231.78 43.67H195.61V56.14H231.74C233.066 56.14 234.338 56.6668 235.276 57.6045C236.213 58.5421 236.74 59.8139 236.74 61.14V123.84C236.74 125.177 236.209 126.459 235.264 127.404C234.319 128.349 233.037 128.88 231.7 128.88C230.363 128.88 229.081 128.349 228.136 127.404C227.191 126.459 226.66 125.177 226.66 123.84V66.22H190.57C189.244 66.22 187.972 65.6932 187.034 64.7555C186.097 63.8178 185.57 62.5461 185.57 61.22V38.67C185.57 37.3439 186.097 36.0721 187.034 35.1345C187.972 34.1968 189.244 33.67 190.57 33.67H226.7V5C226.7 3.67392 227.227 2.40215 228.164 1.46447C229.102 0.526784 230.374 0 231.7 0H254.16C255.486 0 256.758 0.526784 257.696 1.46447C258.633 2.40215 259.16 3.67392 259.16 5V33.63H295.37C296.696 33.63 297.968 34.1568 298.906 35.0945C299.843 36.0321 300.37 37.3039 300.37 38.63V61.18C300.37 62.5061 299.843 63.7778 298.906 64.7155C297.968 65.6532 296.696 66.18 295.37 66.18H259.24V123.84C259.251 124.507 259.128 125.169 258.879 125.787C258.63 126.406 258.26 126.968 257.79 127.442C257.321 127.915 256.761 128.29 256.144 128.544C255.528 128.797 254.867 128.925 254.2 128.92ZM480.9 502H5.04C3.70331 502 2.42137 501.469 1.47618 500.524C0.530999 499.579 0 498.297 0 496.96C0 495.623 0.530999 494.341 1.47618 493.396C2.42137 492.451 3.70331 491.92 5.04 491.92H480.9C482.237 491.92 483.519 492.451 484.464 493.396C485.409 494.341 485.94 495.623 485.94 496.96C485.94 498.297 485.409 499.579 484.464 500.524C483.519 501.469 482.237 502 480.9 502Z" />
</svg>
