<svg viewBox="0 0 480 448" fill="#0F2A3D" xmlns="http://www.w3.org/2000/svg">
<path d="M16 216H80V200H16V157.495L90.8721 128.698L85.1279 113.764L5.1279 144.533C3.61868 145.114 2.32081 146.138 1.40539 147.471C0.489967 148.804 -2.78901e-05 150.383 1.19065e-09 152V232H16V216ZM464 256H368C365.878 256 363.843 256.843 362.343 258.343C360.843 259.843 360 261.878 360 264V328C360 330.122 360.843 332.157 362.343 333.657C363.843 335.157 365.878 336 368 336H464V420.352L370.872 384.533C369.045 383.83 367.024 383.822 365.191 384.509L280 416.456V376C280 374.643 279.655 373.309 278.997 372.122C278.339 370.935 277.391 369.935 276.24 369.216L212.24 329.216C210.968 328.421 209.499 328 208 328H176C173.878 328 171.843 328.843 170.343 330.343C168.843 331.843 168 333.878 168 336V404.456L120 386.456V336C120 333.878 119.157 331.843 117.657 330.343C116.157 328.843 114.122 328 112 328H16V280H144C146.122 280 148.157 279.157 149.657 277.657C151.157 276.157 152 274.122 152 272V232H136V264H16V248H1.19065e-09V440C-6.85969e-06 441.342 0.337837 442.663 0.982405 443.841C1.62697 445.019 2.55754 446.015 3.68837 446.739C4.8192 447.462 6.11394 447.89 7.4533 447.981C8.79266 448.073 10.1336 447.826 11.3525 447.264L112.319 400.664L237.191 447.491C239.002 448.17 240.998 448.17 242.809 447.491L367.964 400.558L469.128 439.467C470.34 439.933 471.647 440.097 472.936 439.945C474.226 439.793 475.459 439.33 476.529 438.595C477.599 437.86 478.475 436.875 479.079 435.726C479.684 434.577 480 433.298 480 432V240H464V256ZM16 344H104V386.881L16 427.497V344ZM240 431.456L184 410.456V344H205.706L264 380.434V422.456L240 431.456ZM376 320V272H464V320H376Z" />
<path d="M474.872 144.533L370.872 104.533C369.188 103.886 367.336 103.826 365.614 104.364L240 143.619L218.386 136.864L213.614 152.136L237.614 159.636C239.168 160.121 240.832 160.121 242.386 159.636L296 142.882V305.052L236.438 265.344C235.123 264.467 233.579 264 232 264H216V232H200V272C200 274.122 200.843 276.157 202.343 277.657C203.843 279.157 205.878 280 208 280H229.578L299.562 326.656C300.767 327.459 302.167 327.92 303.614 327.99C305.06 328.06 306.498 327.736 307.775 327.053C309.051 326.37 310.119 325.353 310.863 324.111C311.607 322.869 312 321.448 312 320V137.882L360 122.882V200C360 202.122 360.843 204.157 362.343 205.657C363.843 207.157 365.878 208 368 208H464V224H480V152C480 150.383 479.51 148.804 478.595 147.471C477.679 146.138 476.381 145.114 474.872 144.533ZM376 192V123.648L464 157.495V192H376Z" />
<path d="M129.011 155.707C108.556 161.016 96 171.458 96 184C96 189.683 98.7607 200.399 117.251 208.324C128.801 213.274 143.983 216 160 216C176.017 216 191.199 213.274 202.749 208.324C221.239 200.399 224 189.683 224 184C224 171.331 211.653 160.988 191.002 155.692C193.378 152.949 195.81 150.043 198.247 146.998C220.644 119.002 232 93.7686 232 72C232 52.9044 224.414 34.5909 210.912 21.0883C197.409 7.5857 179.096 0 160 0C140.904 0 122.591 7.5857 109.088 21.0883C95.5857 34.5909 88 52.9044 88 72C88 93.7686 99.356 119.002 121.753 146.998C124.194 150.049 126.631 152.96 129.011 155.707ZM208 184C208 189.641 189.776 200 160 200C130.224 200 112 189.641 112 184C112 179.774 122.506 172.49 141.628 169.417C149.074 177.048 154.351 181.687 154.732 182.02C156.19 183.297 158.062 184 160 184C161.938 184 163.81 183.297 165.268 182.02C165.649 181.687 170.926 177.047 178.374 169.415C199.273 172.744 208 180.457 208 184ZM160 16C174.847 16.0168 189.081 21.9222 199.579 32.4206C210.078 42.919 215.983 57.153 216 72C216 89.74 205.595 112.15 185.909 136.807C177.889 146.782 169.234 156.23 159.998 165.091C150.822 156.289 142.221 146.906 134.247 137.002C114.459 112.268 104 89.7905 104 72C104.017 57.153 109.922 42.919 120.421 32.4206C130.919 21.9222 145.153 16.0168 160 16Z" />
<path d="M160 104C166.329 104 172.516 102.123 177.778 98.607C183.041 95.0908 187.142 90.0931 189.564 84.2459C191.986 78.3987 192.62 71.9645 191.385 65.7571C190.15 59.5497 187.103 53.8479 182.627 49.3726C178.152 44.8973 172.45 41.8496 166.243 40.6149C160.035 39.3802 153.601 40.0139 147.754 42.4359C141.907 44.8579 136.909 48.9594 133.393 54.2218C129.877 59.4841 128 65.671 128 72C128.01 80.484 131.384 88.6178 137.383 94.6169C143.382 100.616 151.516 103.99 160 104ZM160 56C163.165 56 166.258 56.9384 168.889 58.6965C171.52 60.4546 173.571 62.9535 174.782 65.8771C175.993 68.8007 176.31 72.0178 175.693 75.1215C175.075 78.2252 173.551 81.0761 171.314 83.3137C169.076 85.5514 166.225 87.0752 163.121 87.6926C160.018 88.3099 156.801 87.9931 153.877 86.7821C150.953 85.5711 148.455 83.5203 146.696 80.8891C144.938 78.258 144 75.1645 144 72C144.005 67.758 145.692 63.6912 148.692 60.6917C151.691 57.6921 155.758 56.0049 160 56Z" />
</svg>
