<svg viewBox="0 0 438 395" fill="#0F2A3D" xmlns="http://www.w3.org/2000/svg">
<path d="M420.693 295.147C417.493 291.84 414.08 288.853 410.24 286.4C420.267 277.547 426.667 264.853 426.667 250.56C426.667 224.107 405.12 202.56 378.667 202.56C352.213 202.56 330.667 224.107 330.667 250.56C330.667 264.853 337.067 277.653 347.093 286.4C343.253 288.853 339.733 291.84 336.64 295.147C336.533 295.253 336.427 295.36 336.32 295.467C331.84 300.16 328.107 305.493 325.44 311.467C322.773 305.6 319.04 300.16 314.56 295.467C314.453 295.36 314.347 295.253 314.24 295.147C311.04 291.84 307.627 288.853 303.787 286.4C313.813 277.547 320.213 264.853 320.213 250.56C320.213 224.107 298.667 202.56 272.213 202.56C245.76 202.56 224.213 224.107 224.213 250.56C224.213 264.853 230.613 277.653 240.64 286.4C236.8 288.853 233.28 291.84 230.187 295.147C230.08 295.253 229.973 295.36 229.867 295.467C225.387 300.16 221.653 305.493 218.987 311.467C216.32 305.6 212.587 300.267 208.107 295.467C208 295.36 207.893 295.253 207.787 295.147C204.587 291.84 201.173 288.853 197.333 286.4C207.36 277.547 213.76 264.853 213.76 250.56C213.76 224.107 192.213 202.56 165.76 202.56C139.307 202.56 117.76 224.107 117.76 250.56C117.76 264.853 124.16 277.653 134.187 286.4C130.347 288.853 126.827 291.84 123.733 295.147C123.627 295.253 123.52 295.36 123.413 295.467C118.933 300.16 115.2 305.493 112.533 311.467C109.867 305.6 106.133 300.267 101.653 295.467C101.547 295.36 101.44 295.253 101.333 295.147C98.1333 291.84 94.72 288.853 90.88 286.4C100.907 277.547 107.307 264.853 107.307 250.56C107.307 224.107 85.76 202.56 59.3067 202.56C32.8533 202.56 10.6667 224.107 10.6667 250.56C10.6667 264.853 17.0667 277.653 27.0933 286.4C23.2533 288.853 19.7333 291.84 16.64 295.147C16.5333 295.253 16.4267 295.36 16.32 295.467C6.08 306.24 0 320.533 0 335.893V389.227C0 392.213 2.34667 394.56 5.33333 394.56H112H218.667H325.333H432C434.987 394.56 437.333 392.213 437.333 389.227V335.893C437.333 320.533 431.253 306.24 421.12 295.573C421.013 295.467 420.907 295.253 420.693 295.147ZM21.3333 250.56C21.3333 229.973 38.08 213.227 58.6667 213.227C79.2533 213.227 96 229.973 96 250.56C96 271.147 79.2533 287.893 58.6667 287.893C38.08 287.893 21.3333 271.147 21.3333 250.56ZM87.1467 297.387L58.6667 308.8L30.1867 297.387C32.32 295.787 34.56 294.4 37.0133 293.12C43.52 296.533 50.88 298.56 58.6667 298.56C66.4533 298.56 73.8133 296.533 80.32 293.12C82.7733 294.4 85.0133 295.787 87.1467 297.387ZM106.667 383.893H10.6667V335.893C10.6667 324.587 14.72 313.92 21.6533 305.387L53.3333 318.08V335.893C53.3333 338.88 55.68 341.227 58.6667 341.227C61.6533 341.227 64 338.88 64 335.893V318.187L95.68 305.493C102.613 313.92 106.667 324.587 106.667 336V383.893ZM128 250.56C128 229.973 144.747 213.227 165.333 213.227C185.92 213.227 202.667 229.973 202.667 250.56C202.667 271.147 185.92 287.893 165.333 287.893C144.747 287.893 128 271.147 128 250.56ZM193.813 297.387L165.333 308.8L136.853 297.387C138.987 295.787 141.227 294.4 143.68 293.12C150.187 296.427 157.547 298.56 165.333 298.56C173.12 298.56 180.48 296.533 186.987 293.12C189.44 294.4 191.68 295.787 193.813 297.387ZM213.333 383.893H117.333V335.893C117.333 324.587 121.387 313.92 128.32 305.387L160 318.08V335.893C160 338.88 162.347 341.227 165.333 341.227C168.32 341.227 170.667 338.88 170.667 335.893V318.187L202.347 305.493C209.28 313.92 213.333 324.587 213.333 336V383.893ZM234.667 250.56C234.667 229.973 251.413 213.227 272 213.227C292.587 213.227 309.333 229.973 309.333 250.56C309.333 271.147 292.587 287.893 272 287.893C251.413 287.893 234.667 271.147 234.667 250.56ZM300.48 297.387L272 308.8L243.52 297.387C245.653 295.787 247.893 294.4 250.347 293.12C256.853 296.427 264.213 298.56 272 298.56C279.787 298.56 287.147 296.533 293.653 293.12C296.107 294.4 298.347 295.787 300.48 297.387ZM320 383.893H224V335.893C224 324.587 228.053 313.92 234.987 305.387L266.667 318.08V335.893C266.667 338.88 269.013 341.227 272 341.227C274.987 341.227 277.333 338.88 277.333 335.893V318.187L309.013 305.493C315.947 313.92 320 324.587 320 336V383.893ZM341.333 250.56C341.333 229.973 358.08 213.227 378.667 213.227C399.253 213.227 416 229.973 416 250.56C416 271.147 399.253 287.893 378.667 287.893C358.08 287.893 341.333 271.147 341.333 250.56ZM407.147 297.387L378.667 308.8L350.187 297.387C352.32 295.787 354.56 294.4 357.013 293.12C363.52 296.427 370.88 298.56 378.667 298.56C386.453 298.56 393.813 296.533 400.32 293.12C402.773 294.4 405.013 295.787 407.147 297.387ZM426.667 383.893H330.667V335.893C330.667 324.587 334.72 313.92 341.653 305.387L373.333 318.08V335.893C373.333 338.88 375.68 341.227 378.667 341.227C381.653 341.227 384 338.88 384 335.893V318.187L415.68 305.493C422.613 313.92 426.667 324.587 426.667 336V383.893ZM69.5467 92.9067C59.4133 103.573 53.3333 117.973 53.3333 133.227V186.56C53.3333 189.547 55.68 191.893 58.6667 191.893H165.333H272H378.667C381.653 191.893 384 189.547 384 186.56V133.227C384 117.867 377.92 103.573 367.787 92.9067C367.68 92.8 367.573 92.6933 367.467 92.5867C364.267 89.28 360.853 86.2933 357.013 83.84C367.04 74.9867 373.44 62.2933 373.44 48C373.44 21.5467 351.893 0 325.44 0C298.987 0 277.44 21.5467 277.44 48C277.44 62.2933 283.84 75.0933 293.867 83.84C290.027 86.2933 286.507 89.28 283.413 92.5867C283.307 92.6933 283.2 92.8 283.093 92.9067C278.613 97.6 274.88 102.933 272.213 108.907C269.547 103.04 265.813 97.7067 261.333 92.9067C261.227 92.8 261.12 92.6933 261.013 92.5867C257.813 89.28 254.4 86.2933 250.56 83.84C260.587 74.9867 266.987 62.2933 266.987 48C266.987 21.5467 245.44 0 218.987 0C192.533 0 170.987 21.5467 170.987 48C170.987 62.2933 177.387 75.0933 187.413 83.84C183.573 86.2933 180.053 89.28 176.96 92.5867C176.853 92.6933 176.747 92.8 176.64 92.9067C172.16 97.6 168.427 102.933 165.76 108.907C163.093 103.04 159.36 97.7067 154.88 92.9067C154.773 92.8 154.667 92.6933 154.56 92.5867C151.36 89.28 147.947 86.2933 144.107 83.84C154.133 74.9867 160.533 62.2933 160.533 48C160.533 21.5467 138.987 0 112.533 0C86.08 0 64 21.44 64 47.8933C64 62.1867 70.4 74.9867 80.4267 83.7333C76.5867 86.1867 73.0667 89.1733 69.9733 92.48C69.76 92.5867 69.6533 92.8 69.5467 92.9067ZM288 47.8933C288 27.3067 304.747 10.56 325.333 10.56C345.92 10.56 362.667 27.3067 362.667 47.8933C362.667 68.48 345.92 85.2267 325.333 85.2267C304.747 85.2267 288 68.48 288 47.8933ZM353.813 94.72L325.333 106.133L296.853 94.72C298.987 93.12 301.227 91.7333 303.68 90.4533C310.187 93.76 317.547 95.8933 325.333 95.8933C333.12 95.8933 340.48 93.8667 346.987 90.4533C349.44 91.7333 351.68 93.12 353.813 94.72ZM277.333 133.227C277.333 121.92 281.387 111.253 288.32 102.72L320 115.413V133.227C320 136.213 322.347 138.56 325.333 138.56C328.32 138.56 330.667 136.213 330.667 133.227V115.52L362.347 102.827C369.28 111.253 373.333 121.92 373.333 133.333V181.333H277.333V133.227ZM181.333 47.8933C181.333 27.3067 198.08 10.56 218.667 10.56C239.253 10.56 256 27.3067 256 47.8933C256 68.48 239.253 85.2267 218.667 85.2267C198.08 85.2267 181.333 68.48 181.333 47.8933ZM247.147 94.72L218.667 106.133L190.187 94.72C192.32 93.12 194.56 91.7333 197.013 90.4533C203.52 93.76 210.88 95.8933 218.667 95.8933C226.453 95.8933 233.813 93.8667 240.32 90.4533C242.773 91.7333 245.013 93.12 247.147 94.72ZM170.667 133.227C170.667 121.92 174.72 111.253 181.653 102.72L213.333 115.413V133.227C213.333 136.213 215.68 138.56 218.667 138.56C221.653 138.56 224 136.213 224 133.227V115.52L255.68 102.827C262.613 111.253 266.667 121.92 266.667 133.333V181.333H170.667V133.227ZM74.6667 47.8933C74.6667 27.3067 91.4133 10.56 112 10.56C132.587 10.56 149.333 27.3067 149.333 47.8933C149.333 68.48 132.587 85.2267 112 85.2267C91.4133 85.2267 74.6667 68.48 74.6667 47.8933ZM140.48 94.72L112 106.133L83.52 94.72C85.6533 93.12 87.8933 91.7333 90.3467 90.4533C96.8533 93.76 104.213 95.8933 112 95.8933C119.787 95.8933 127.147 93.8667 133.653 90.4533C136.107 91.7333 138.347 93.12 140.48 94.72ZM106.667 115.52V133.227C106.667 136.213 109.013 138.56 112 138.56C114.987 138.56 117.333 136.213 117.333 133.227V115.52L149.013 102.827C155.947 111.253 160 121.92 160 133.333V181.333H64V133.227C64 121.92 68.0533 111.253 74.9867 102.72L106.667 115.52Z" />
</svg>
